# xmcd
#
# Track frame offsets: 
#        150
#        12072
#        23565
#        36530
#        48745
#        60867
#        73122
#        84227
#        96667
#        109250
#        121012
#        130530
#        143995
#        157485
#        169660
#        181717
#
# Disc length: 2600 seconds
#
# Revision: 0
# Processed by: cddbd v1.5.2PL0 Copyright (c) Steve Scherf et al.
# Submitted via: ExactAudioCopy v1.0b3
#
DISCID=d40a2610
DTITLE=Various Artist - Big Hits Of Soul 1 (Stop! In The Name Of Love
DTITLE=)
DYEAR=1900
DGENRE=Oldies
TTITLE0=Diana Ross and Supremes - Baby Love
TTITLE1=Diana Ross and Supremes - Where Did Our Love Go
TTITLE2=Diana Ross and Supremes - Stop! In The Name Of Love
TTITLE3=Diana Ross and Supremes - I Hear A Sympony
TTITLE4=Diana Ross and Supremes - You Keep Me Hangin' On
TTITLE5=The Temptations - My Girl
TTITLE6=The Marvelettes - Please Mr. Postman
TTITLE7=Smokey Robinson and the Miracles - Shop Around
TTITLE8=Smokey Robinson and the Miracles - Oo Baby, Baby
TTITLE9=The Shirelles - Baby It's You
TTITLE10=The Shirelles - Dedicated To The One I Love
TTITLE11=Marvin Gaye - How Sweet It Is (To Be Loved By You)
TTITLE12=Four Tops - Reach Out I'll Be There
TTITLE13=Four Tops - I Can't Help Myself (Suger Oie, Honey Bunch)
TTITLE14=Martha and The Vandellas - Dancing In The Street
TTITLE15=Kim Weston - Take Me In Your Arms (Rock Me A Little While)
EXTD=
EXTT0=
EXTT1=
EXTT2=
EXTT3=
EXTT4=
EXTT5=
EXTT6=
EXTT7=
EXTT8=
EXTT9=
EXTT10=
EXTT11=
EXTT12=
EXTT13=
EXTT14=
EXTT15=
PLAYORDER=
